<svg width="841.89" height="595.276" xmlns="http://www.w3.org/2000/svg" xmlns:svg="http://www.w3.org/2000/svg" class="st16">
 <style type="text/css">
  <![CDATA[
		.st1 {fill:#5b9bd5;stroke:#ffffff;stroke-linecap:round;stroke-linejoin:round;stroke-width:0.5}
		.st2 {fill:#aad288;stroke:#ffffff;stroke-linecap:round;stroke-linejoin:round;stroke-width:0.5}
		.st3 {fill:#ffffff}
		.st4 {stroke:#ffffff;stroke-dasharray:3.5,2.5;stroke-linecap:round;stroke-linejoin:round;stroke-width:0.5}
		.st5 {stroke:#73ae42;stroke-linecap:round;stroke-linejoin:round;stroke-width:0.5}
		.st6 {fill:none;stroke:none;stroke-linecap:round;stroke-linejoin:round;stroke-width:0.5}
		.st7 {fill:#5b9bd5;font-family:Calibri;font-size:1.00001em}
		.st8 {fill:#5b9bd5}
		.st9 {stroke:#ffffff;stroke-linecap:round;stroke-linejoin:round;stroke-width:0.5}
		.st10 {fill:#a5a5a5}
		.st11 {marker-end:url(#mrkr4-94);stroke:#5592c9;stroke-linecap:round;stroke-linejoin:round;stroke-width:0.75}
		.st12 {fill:#5592c9;fill-opacity:1;stroke:#5592c9;stroke-opacity:1;stroke-width:0.22935779816514}
		.st13 {fill:#5b9bd5;font-family:Calibri;font-size:1.16666em}
		.st14 {font-size:1em}
		.st15 {fill:#73ad42;font-family:Calibri;font-size:0.833336em}
		.st16 {fill:none;fill-rule:evenodd;font-size:12px;overflow:visible;stroke-linecap:square;stroke-miterlimit:3}
	]]>
 </style>
 <defs>
  <g id="lend4">
   <path id="svg_1" d="m2,1l-2,-1l2,-1l0,2"/>
  </g>
 </defs>
 <g class="layer">
  <title>Page 1</title>
  <g transform="translate(248.031005859375,-283.4649963378906) " id="group1-1">
   <title>Serveur virtuel</title>
   <g transform="translate(14.4888,-2.62467)" id="shape2-2">
    <title>Feuille.2</title>
    <rect id="svg_3" class="st1" height="65.6168" width="41.8885" y="529.659" x="0"/>
   </g>
   <g transform="translate(45.7959,-30.6352)" id="shape3-4">
    <title>Feuille.3</title>
    <ellipse id="svg_4" class="st2" ry="2.53215" rx="2.53215" cy="592.743" cx="2.53215"/>
   </g>
   <g transform="translate(30.4298,-13.3806)" id="shape4-6">
    <title>Feuille.4</title>
    <path id="svg_5" class="st3" d="m0,595.28l20.43,0l0,-1.64l-20.43,0l0,1.64zm0,-4.98l20.43,0l0,-1.64l-20.43,0l0,1.64zm0,-4.97l20.43,0l0,-1.65l-20.43,0l0,1.65z"/>
   </g>
   <g transform="translate(11.8642,1.31998E-06)" id="shape5-9">
    <title>Feuille.5</title>
    <path id="svg_6" class="st4" d="m0,595.28l47.14,0l0,-70.87l-47.14,0l0,70.87"/>
   </g>
  </g>
  <g transform="translate(343.70098876953125,-283.4649963378906) " id="group6-12">
   <title>Serveur virtuel.6</title>
   <g transform="translate(14.4888,-2.62467)" id="shape7-13">
    <title>Feuille.7</title>
    <rect id="svg_7" class="st1" height="65.6168" width="41.8885" y="529.659" x="0"/>
   </g>
   <g transform="translate(45.7959,-30.6352)" id="shape8-15">
    <title>Feuille.8</title>
    <ellipse id="svg_8" class="st2" ry="2.53215" rx="2.53215" cy="592.743" cx="2.53215"/>
   </g>
   <g transform="translate(30.4298,-13.3806)" id="shape9-17">
    <title>Feuille.9</title>
    <path id="svg_9" class="st3" d="m0,595.28l20.43,0l0,-1.64l-20.43,0l0,1.64zm0,-4.98l20.43,0l0,-1.64l-20.43,0l0,1.64zm0,-4.97l20.43,0l0,-1.65l-20.43,0l0,1.65z"/>
   </g>
   <g transform="translate(11.8642,1.31998E-06)" id="shape10-20">
    <title>Feuille.10</title>
    <path id="svg_10" class="st4" d="m0,595.28l47.14,0l0,-70.87l-47.14,0l0,70.87"/>
   </g>
  </g>
  <g transform="translate(290.5509948730469,-141.73199462890625) " id="group11-23">
   <title>Serveur virtuel.11</title>
   <g transform="translate(14.4888,-2.62467)" id="shape12-24">
    <title>Feuille.12</title>
    <rect id="svg_11" class="st1" height="65.6168" width="41.8885" y="529.659" x="0"/>
   </g>
   <g transform="translate(45.7959,-30.6352)" id="shape13-26">
    <title>Feuille.13</title>
    <ellipse id="svg_12" class="st2" ry="2.53215" rx="2.53215" cy="592.743" cx="2.53215"/>
   </g>
   <g transform="translate(30.4298,-13.3806)" id="shape14-28">
    <title>Feuille.14</title>
    <path id="svg_13" class="st3" d="m0,595.28l20.43,0l0,-1.64l-20.43,0l0,1.64zm0,-4.98l20.43,0l0,-1.64l-20.43,0l0,1.64zm0,-4.97l20.43,0l0,-1.65l-20.43,0l0,1.65z"/>
   </g>
   <g transform="translate(11.8642,1.31998E-06)" id="shape15-31">
    <title>Feuille.15</title>
    <path id="svg_14" class="st4" d="m0,595.28l47.14,0l0,-70.87l-47.14,0l0,70.87"/>
   </g>
  </g>
  <g transform="translate(368.5039978027344,-477.63800048828125) " id="group24-34">
   <title>Liaison commutée</title>
   <g transform="translate(9.86015,1.13687E-13)" id="shape25-35">
    <title>Feuille.25</title>
    <path id="svg_15" class="st1" d="m98.11,575.43l-53.17,17.14l0.25,-7.98l-45.19,10.69l53.88,-18.85l0,8.57l44.23,-9.57z"/>
   </g>
   <g transform="translate(0,-9.92126)" id="shape26-37">
    <title>Feuille.26</title>
    <path id="svg_16" class="st5" d="m86.41,595.28l32.65,0"/>
    <path id="svg_17" class="st5" d="m31.2,595.28l-31.2,0"/>
   </g>
  </g>
  <g transform="translate(845.2830200195312,92.75309753417969) rotate(68.19860076904297 0,0) " id="group27-41">
   <title>Liaison commutée.27</title>
   <g transform="translate(6.32125,1.13687E-13)" id="shape28-42">
    <title>Feuille.28</title>
    <path id="svg_18" class="st1" d="m62.9,584.39l-34.09,9.4l0.16,-4.38l-28.97,5.87l34.54,-10.35l0,4.71l28.36,-5.25z"/>
   </g>
   <g transform="translate(0,-5.44409)" id="shape29-44">
    <title>Feuille.29</title>
    <path id="svg_19" class="st5" d="m55.4,595.28l20.93,0"/>
    <path id="svg_20" class="st5" d="m20,595.28l-20,0"/>
   </g>
  </g>
  <g transform="translate(874.280029296875,615.2769775390625) rotate(120.96399688720703 0,0) " id="group30-48">
   <title>Liaison commutée.30</title>
   <g transform="translate(6.84453,1.13687E-13)" id="shape31-49">
    <title>Feuille.31</title>
    <path id="svg_21" class="st1" d="m68.1,584.39l-36.9,9.4l0.17,-4.38l-31.37,5.87l37.4,-10.35l0,4.71l30.7,-5.25z"/>
   </g>
   <g transform="translate(0,-5.44409)" id="shape32-51">
    <title>Feuille.32</title>
    <path id="svg_22" class="st5" d="m59.98,595.28l22.66,0"/>
    <path id="svg_23" class="st5" d="m21.66,595.28l-21.66,0"/>
   </g>
  </g>
  <g id="shape37-55">
   <title>Feuille.37</title>
   <desc>Master 1</desc>
   <rect id="svg_24" class="st6" height="28.3465" width="70.8661" y="36.85002" x="301.181"/>
   <text id="svg_25" class="st7" y="54.62102" x="314.781">Master 1</text>
  </g>
  <g transform="translate(485.4330139160156,-532.9130249023438) " id="shape39-58">
   <title>Feuille.39</title>
   <desc>Master 2</desc>
   <rect id="svg_26" class="st6" height="19.8425" width="68.0315" y="575.433" x="0"/>
   <text id="svg_27" class="st7" y="588.95" x="12.18">Master 2</text>
  </g>
  <g transform="translate(248.031005859375,-368.5039978027344) " id="shape41-61">
   <title>Feuille.41</title>
   <desc>Slave 1</desc>
   <rect id="svg_28" class="st6" height="14.1732" width="48.7205" y="581.102" x="0"/>
   <text id="svg_29" class="st7" y="591.79" x="7.26">Slave 1</text>
  </g>
  <g transform="translate(365.84600830078125,-368.5039978027344) " id="shape79-64">
   <title>Feuille.79</title>
   <desc>Slave 2</desc>
   <rect id="svg_30" class="st6" height="14.1732" width="48.7205" y="581.102" x="0"/>
   <text id="svg_31" class="st7" y="591.79" x="7.26">Slave 2</text>
  </g>
  <g transform="translate(301.1809997558594,-453.5429992675781) " id="group127-67">
   <title>Ordinateur central</title>
   <g transform="translate(5.68158,1.13687E-13)" id="shape128-68">
    <title>Feuille.128</title>
    <path id="svg_32" class="st8" d="m0,595.28l59.5,0l0,-70.87l-59.5,0l0,70.87z"/>
    <path id="svg_33" class="st9" d="m0,595.28l59.5,0l0,-70.87l-59.5,0l0,70.87"/>
    <path id="svg_34" class="st9" d="m29.75,595.28l0,-70.87"/>
   </g>
   <g transform="translate(11.5726,-5.14536)" id="shape129-72">
    <title>Feuille.129</title>
    <path id="svg_35" class="st3" d="m36.09,551.42l13.14,0l0,-15.04l-13.14,0l0,15.04zm-21.2,-8.95l1.79,0l0,-6.41l-1.79,0l0,6.41zm0,9.24l1.79,0l0,-6.41l-1.79,0l0,6.41zm-4.26,-9.24l1.8,0l0,-6.41l-1.8,0l0,6.41zm0,9.24l1.8,0l0,-6.41l-1.8,0l0,6.41zm-6.38,-9.24l1.8,0l0,-6.41l-1.8,0l0,6.41zm0,9.24l1.8,0l0,-6.41l-1.8,0l0,6.41zm-4.25,-9.24l1.79,0l0,-6.41l-1.79,0l0,6.41zm0,9.24l1.79,0l0,-6.41l-1.79,0l0,6.41zm33.82,34.74l0,1.25l15.57,-0.01l0,-1.25l-15.57,0.01zm0,3.79l0,1.25l15.57,-0.01l0,-1.24l-15.57,0zm0,3.79l0,1.25l15.57,-0.01l0,-1.24l-15.57,0zm-30.86,-6.33l15.56,0l0,-1.25l-15.57,0l0.01,1.25zm0,3.79l15.56,0l0,-1.25l-15.57,0l0.01,1.25zm0,3.79l15.56,0l0,-1.25l-15.57,0l0.01,1.25z"/>
   </g>
   <g transform="translate(49.0815,-50.4059)" id="shape130-75">
    <title>Feuille.130</title>
    <path id="svg_36" class="st10" d="m8.15,583.79a1.11073,1.11073 -180 1 0 2.09,0.77a1.11073,1.11073 -180 1 0 -2.09,-0.77zm0.02,3.29a1.11073,1.11073 -180 1 0 2.05,0.85a1.11073,1.11073 -180 1 0 -2.05,-0.85zm0.01,3.31a1.11073,1.11073 -180 1 0 2.03,0.89a1.11073,1.11073 -180 1 0 -2.03,-0.89zm0,3.32a1.11073,1.11073 -180 1 0 2.03,0.89a1.11073,1.11073 -180 1 0 -2.03,-0.89zm-4.08,-9.87a1.11073,1.11073 -180 1 0 2.11,0.67a1.11073,1.11073 -180 1 0 -2.11,-0.67zm0.01,3.3a1.11073,1.11073 -180 1 0 2.09,0.73a1.11073,1.11073 -180 1 0 -2.09,-0.73zm0,3.3a1.11073,1.11073 -180 1 0 2.08,0.78a1.11073,1.11073 -180 1 0 -2.08,-0.78zm0,3.33a1.11073,1.11073 -180 1 0 2.08,0.78a1.11073,1.11073 -180 1 0 -2.08,-0.78zm-4.07,-9.87a1.11144,1.11144 -180 1 0 2.15,0.56a1.11144,1.11144 -180 1 0 -2.15,-0.56zm0.01,3.29a1.11144,1.11144 -180 1 0 2.13,0.63a1.11144,1.11144 -180 1 0 -2.13,-0.63zm0,3.31a1.11144,1.11144 -180 1 0 2.12,0.66a1.11144,1.11144 -180 1 0 -2.12,-0.66zm0,3.33a1.11144,1.11144 -180 1 0 2.12,0.66a1.11144,1.11144 -180 1 0 -2.12,-0.66z"/>
   </g>
  </g>
  <g transform="translate(485.4330139160156,-453.5429992675781) " id="group131-78">
   <title>Ordinateur central.131</title>
   <g transform="translate(5.68158,1.13687E-13)" id="shape132-79">
    <title>Feuille.132</title>
    <path id="svg_37" class="st8" d="m0,595.28l59.5,0l0,-70.87l-59.5,0l0,70.87z"/>
    <path id="svg_38" class="st9" d="m0,595.28l59.5,0l0,-70.87l-59.5,0l0,70.87"/>
    <path id="svg_39" class="st9" d="m29.75,595.28l0,-70.87"/>
   </g>
   <g transform="translate(11.5726,-5.14536)" id="shape133-83">
    <title>Feuille.133</title>
    <path id="svg_40" class="st3" d="m36.09,551.42l13.14,0l0,-15.04l-13.14,0l0,15.04zm-21.2,-8.95l1.79,0l0,-6.41l-1.79,0l0,6.41zm0,9.24l1.79,0l0,-6.41l-1.79,0l0,6.41zm-4.26,-9.24l1.8,0l0,-6.41l-1.8,0l0,6.41zm0,9.24l1.8,0l0,-6.41l-1.8,0l0,6.41zm-6.38,-9.24l1.8,0l0,-6.41l-1.8,0l0,6.41zm0,9.24l1.8,0l0,-6.41l-1.8,0l0,6.41zm-4.25,-9.24l1.79,0l0,-6.41l-1.79,0l0,6.41zm0,9.24l1.79,0l0,-6.41l-1.79,0l0,6.41zm33.82,34.74l0,1.25l15.57,-0.01l0,-1.25l-15.57,0.01zm0,3.79l0,1.25l15.57,-0.01l0,-1.24l-15.57,0zm0,3.79l0,1.25l15.57,-0.01l0,-1.24l-15.57,0zm-30.86,-6.33l15.56,0l0,-1.25l-15.57,0l0.01,1.25zm0,3.79l15.56,0l0,-1.25l-15.57,0l0.01,1.25zm0,3.79l15.56,0l0,-1.25l-15.57,0l0.01,1.25z"/>
   </g>
   <g transform="translate(49.0815,-50.4059)" id="shape134-86">
    <title>Feuille.134</title>
    <path id="svg_41" class="st10" d="m8.15,583.79a1.11073,1.11073 -180 1 0 2.09,0.77a1.11073,1.11073 -180 1 0 -2.09,-0.77zm0.02,3.29a1.11073,1.11073 -180 1 0 2.05,0.85a1.11073,1.11073 -180 1 0 -2.05,-0.85zm0.01,3.31a1.11073,1.11073 -180 1 0 2.03,0.89a1.11073,1.11073 -180 1 0 -2.03,-0.89zm0,3.32a1.11073,1.11073 -180 1 0 2.03,0.89a1.11073,1.11073 -180 1 0 -2.03,-0.89zm-4.08,-9.87a1.11073,1.11073 -180 1 0 2.11,0.67a1.11073,1.11073 -180 1 0 -2.11,-0.67zm0.01,3.3a1.11073,1.11073 -180 1 0 2.09,0.73a1.11073,1.11073 -180 1 0 -2.09,-0.73zm0,3.3a1.11073,1.11073 -180 1 0 2.08,0.78a1.11073,1.11073 -180 1 0 -2.08,-0.78zm0,3.33a1.11073,1.11073 -180 1 0 2.08,0.78a1.11073,1.11073 -180 1 0 -2.08,-0.78zm-4.07,-9.87a1.11144,1.11144 -180 1 0 2.15,0.56a1.11144,1.11144 -180 1 0 -2.15,-0.56zm0.01,3.29a1.11144,1.11144 -180 1 0 2.13,0.63a1.11144,1.11144 -180 1 0 -2.13,-0.63zm0,3.31a1.11144,1.11144 -180 1 0 2.12,0.66a1.11144,1.11144 -180 1 0 -2.12,-0.66zm0,3.33a1.11144,1.11144 -180 1 0 2.12,0.66a1.11144,1.11144 -180 1 0 -2.12,-0.66z"/>
   </g>
  </g>
  <g transform="translate(325.5409851074219,-453.5429992675781) " id="shape135-89">
   <title>Lien dynamique</title>
   <path id="svg_42" class="st11" d="m0,595.28l-29.05,92.97"/>
  </g>
  <g transform="translate(345.47198486328125,-453.5429992675781) " id="shape136-95">
   <title>Lien dynamique.136</title>
   <path id="svg_43" class="st11" d="m0,595.28l23.22,92.86"/>
  </g>
  <g transform="translate(301.6239929199219,-113.38600158691406) " id="shape137-100">
   <title>Feuille.137</title>
   <desc>Slave 3</desc>
   <rect id="svg_44" class="st6" height="14.1732" width="48.7205" y="581.102" x="0"/>
   <text id="svg_45" class="st7" y="591.79" x="7.26">Slave 3</text>
  </g>
  <g transform="translate(28.346500396728516,-504.5669860839844) " id="shape138-103">
   <title>Feuille.138</title>
   <desc>Hadoop architecture</desc>
   <rect id="svg_46" class="st6" height="62.3622" width="85.0394" y="532.913" x="0"/>
   <text id="svg_47" class="st13" y="559.89" x="20.07">Hadoop
    <tspan id="svg_48" class="st14" dy="1.2em" x="7.75">architecture</tspan></text>
  </g>
  <g transform="translate(393.3070068359375,-490.3940124511719) " id="shape82-107">
   <title>Inverse l&#x27;image.82</title>
   <desc>In case of Failure of M1</desc>
   <path id="svg_49" class="st5" d="m0,599.53l0,-4.25l70.87,0l0,4.25"/>
   <text id="svg_50" class="st15" y="575.27" x="16.17">In case of
    <tspan id="svg_51" class="st14" dy="1.2em" x="8.36">Failure of M1</tspan></text>
  </g>
  <g transform="translate(368.5039978027344,-177.87399291992188) " id="shape126-112">
   <title>Orthogonal</title>
   <desc>In case of Failure from one slave</desc>
   <path id="svg_52" class="st5" d="m0,582.84l-18.95,5.86"/>
   <path id="svg_53" class="st5" d="m4.25,548.5l-4.25,0l0,46.78l4.25,0"/>
   <text id="svg_54" class="st15" y="562.89" x="4">In case of
    <tspan id="svg_55" class="st14" dy="1.2em" x="4">Failure from</tspan>
    <tspan id="svg_56" class="st14" dy="1.2em" x="4">one slave</tspan></text>
  </g>
  <text stroke="#000000" transform="matrix(10.381712913513184,0,0,1,-3476.3644022494555,0) " xml:space="preserve" text-anchor="middle" font-family="serif" font-size="24" id="svg_57" y="67.724" x="365.10999" stroke-width="0" fill="#000000"/>
  <text stroke="#000000" transform="matrix(21.94582284867429,0,0,10.697980990950011,-4546.662538693548,-2151.369142100974) " xml:space="preserve" text-anchor="middle" font-family="Sans-serif" font-size="1" id="svg_58" y="207.47148" x="222.58426" stroke-linecap="null" stroke-linejoin="null" stroke-dasharray="null" stroke-width="0" fill="#000000">192.168.0.188</text>
  <text stroke="#000000" transform="matrix(21.94582284867429,0,0,10.697980990950011,-4546.662538693548,-2151.369142100974) " xml:space="preserve" text-anchor="middle" font-family="Sans-serif" font-size="1" id="svg_59" y="207.45033" x="230.7914" stroke-linecap="null" stroke-linejoin="null" stroke-dasharray="null" stroke-width="0" fill="#000000">192.168.0.183</text>
  <text stroke="#000000" transform="matrix(21.94582284867429,0,0,10.697980990950011,-4546.662538693548,-2151.369142100974) " xml:space="preserve" text-anchor="middle" font-family="Sans-serif" font-size="1" id="svg_60" y="223.43466" x="218.80734" stroke-linecap="null" stroke-linejoin="null" stroke-dasharray="null" stroke-width="0" fill="#000000">192.168.0.182</text>
  <text stroke="#000000" transform="matrix(21.94582284867429,0,0,10.697980990950011,-4546.662538693548,-2151.369142100974) " xml:space="preserve" text-anchor="middle" font-family="Sans-serif" font-size="1" id="svg_61" y="223.34118" x="227.00936" stroke-linecap="null" stroke-linejoin="null" stroke-dasharray="null" stroke-width="0" fill="#000000">192.168.0.181</text>
  <text stroke="#000000" transform="matrix(21.94582284867429,0,0,10.697980990950011,-4546.662538693548,-2151.369142100974) " xml:space="preserve" text-anchor="middle" font-family="Sans-serif" font-size="1" id="svg_62" y="244.18624" x="222.04258" stroke-linecap="null" stroke-linejoin="null" stroke-dasharray="null" stroke-width="0" fill="#000000">192.168.0.180</text>
 </g>
</svg>
